
        <svg xmlns="http://www.w3.org/2000/svg" xmlns:xlink="http://www.w3.org/1999/xlink" version="1.1" width="3162.137474309203" 
        height="632.6623196000843" viewBox="0 0 3162.137474309203 632.6623196000843">
			
			<g transform="scale(8.106873715460152) translate(10, 10)">
				<defs id="SvgjsDefs1440"></defs><g id="SvgjsG1441" featureKey="4K7G0D-0" transform="matrix(1.308892738367787,0,0,1.308892738367787,-5.067133598115054,-11.963280078054233)" fill="#ff325d"><g xmlns="http://www.w3.org/2000/svg"><path fill="#ff325d" d="M44.868,25.026c-2.097,0-3.795,1.7-3.795,3.796   c0,2.096,1.698,3.796,3.795,3.796c2.095,0,3.796-1.7,3.796-3.796C48.664,26.726,46.963,25.026,44.868,25.026z M19.813,25.026   c-2.098,0-3.796,1.7-3.796,3.796c0,2.096,1.699,3.796,3.796,3.796c2.096,0,3.795-1.7,3.795-3.796   C23.608,26.726,21.909,25.026,19.813,25.026z M9.242,20.24c-0.741-0.744-1.11-1.718-1.11-2.686c0-0.973,0.369-1.946,1.11-2.687   c0.745-0.74,1.714-1.109,2.686-1.109c0.973,0,1.946,0.369,2.686,1.109l-0.887,0.655c5.137-3.995,11.597-6.382,18.613-6.382   c7.018,0,13.469,2.386,18.613,6.382l-0.884-0.652c0.741-0.741,1.711-1.11,2.686-1.11c0.97,0,1.944,0.369,2.683,1.11   c0.738,0.745,1.107,1.718,1.107,2.686c0,0.974-0.366,1.946-1.107,2.687l0.886,0.651c12.835,12.834-9.011,18.613-9.011,18.613   H17.368c-0.63,0-22.741-4.884-9.011-18.613L9.242,20.24z"></path></g><path xmlns="http://www.w3.org/2000/svg" fill="#ff325d" d="M52.358,53.063c-2.55,0-4.617-2.067-4.617-4.618l0,0c0-2.55,2.067-4.617,4.617-4.617l0,0  c2.55,0,4.617,2.067,4.617,4.617l0,0C56.976,50.996,54.908,53.063,52.358,53.063L52.358,53.063z"></path><path xmlns="http://www.w3.org/2000/svg" fill="#ff325d" d="M14.422,53.483c-2.551,0-4.618-2.067-4.618-4.618l0,0c0-2.55,2.067-4.617,4.618-4.617l0,0  c2.551,0,4.618,2.067,4.618,4.617l0,0C19.04,51.416,16.973,53.483,14.422,53.483L14.422,53.483z"></path><path xmlns="http://www.w3.org/2000/svg" fill="#ff325d" d="M18.526,40.461h27.726C46.252,40.461,32.81,45.081,18.526,40.461z"></path></g><g id="SvgjsG1442" featureKey="wPuqcM-0" transform="matrix(1.8983382031641456,0,0,1.8983382031641456,92.4813299805876,-7.124261218799193)" fill="#ff325d"><path d="M10.7 6 l0 2.68 l-3.48 0 l0 11.32 l-2.92 0 l0 -11.32 l-3.5 0 l0 -2.68 l9.9 0 z M18.72 9.44 c1.98 0 3.94 1.3 3.94 4.58 l0 5.98 l-2.86 0 l0 -5.78 c0 -1.7 -0.66 -2.28 -1.76 -2.28 c-1.52 0 -2.42 1.44 -2.64 2.16 l0 5.9 l-2.86 0 l0 -14.14 l2.86 0 l0 5.66 c0.2 -0.54 1.32 -2.08 3.32 -2.08 z M29.720000000000002 9.42 c2.36 0 5.44 1.78 5.44 5.42 s-3.08 5.36 -5.44 5.36 s-5.46 -1.72 -5.46 -5.36 s3.1 -5.42 5.46 -5.42 z M29.720000000000002 11.96 c-1.3 0 -2.68 0.98 -2.68 2.88 c0 1.84 1.38 2.82 2.68 2.82 c1.28 0 2.68 -0.98 2.68 -2.82 c0 -1.9 -1.4 -2.88 -2.68 -2.88 z M40.7 20.16 c-1.98 0 -3.94 -1.3 -3.94 -4.58 l0 -5.98 l2.86 0 l0 5.78 c0 1.7 0.66 2.28 1.76 2.28 c1.52 0 2.42 -1.44 2.64 -2.16 l0 -5.9 l2.86 0 l0 10.4 l-2.86 0 l0 -1.92 c-0.2 0.54 -1.32 2.08 -3.32 2.08 z M56.64 9.6 l2.86 0 l0 10.4 c0 3.16 -3.1 4.12 -5.36 4.12 c-1.2 0 -2.2 -0.24 -2.82 -0.58 l0 -2.34 c0.62 0.34 1.58 0.54 2.82 0.54 c1.84 0 2.5 -0.98 2.5 -1.74 l0 -1.28 c-0.06 0.42 -1.08 1.48 -2.88 1.48 c-2.38 0 -5.14 -1.72 -5.14 -5.42 c0 -3.58 2.76 -5.36 5.14 -5.36 c1.8 0 2.82 1.12 2.88 1.34 l0 -1.16 z M54.160000000000004 17.66 c1.4 0 2.62 -0.96 2.62 -2.88 c0 -1.86 -1.22 -2.82 -2.62 -2.82 c-1.44 0 -2.76 0.98 -2.76 2.82 c0 1.9 1.32 2.88 2.76 2.88 z M67.76 9.44 c1.98 0 3.94 1.3 3.94 4.58 l0 5.98 l-2.86 0 l0 -5.78 c0 -1.7 -0.66 -2.28 -1.76 -2.28 c-1.52 0 -2.42 1.44 -2.64 2.16 l0 5.9 l-2.86 0 l0 -14.14 l2.86 0 l0 5.66 c0.2 -0.54 1.32 -2.08 3.32 -2.08 z M78.38000000000001 17.6 c0.54 0 0.94 -0.06 1.38 -0.22 l0 2.4 c-0.44 0.2 -1.12 0.34 -2.12 0.34 c-1.62 0 -2.98 -0.56 -2.98 -3.5 l0 -4.66 l-1.46 0 l0 -2.36 l1.46 0 l0 -2.44 l2.86 0 l0 2.44 l2.22 0 l0 2.36 l-2.22 0 l0 4.64 c0 0.48 0.14 1 0.86 1 z M96.50000000000001 8.66 l-5.86 0 l0 3.06 l4.82 0 l0 2.5 l-4.82 0 l0 5.78 l-3 0 l0 -14 l8.86 0 l0 2.66 z M102.76000000000002 9.42 c2.36 0 5.44 1.78 5.44 5.42 s-3.08 5.36 -5.44 5.36 s-5.46 -1.72 -5.46 -5.36 s3.1 -5.42 5.46 -5.42 z M102.76000000000002 11.96 c-1.3 0 -2.68 0.98 -2.68 2.88 c0 1.84 1.38 2.82 2.68 2.82 c1.28 0 2.68 -0.98 2.68 -2.82 c0 -1.9 -1.4 -2.88 -2.68 -2.88 z M116.40000000000002 9.44 c0.26 0 0.5 0 0.76 0.06 l0 2.74 c-0.24 -0.06 -0.48 -0.06 -0.68 -0.06 c-1.92 0 -3.5 1.38 -3.68 3.38 l0 4.44 l-2.86 0 l0 -10.4 l2.86 0 l0 2.6 c0.46 -1.58 1.72 -2.76 3.6 -2.76 z M132.42000000000002 9.44 c2.16 0 4.12 1.4 4.12 4.88 l0 5.68 l-2.86 0 l0 -5.62 c0 -1.44 -0.66 -2.44 -2.14 -2.44 c-1.34 0 -2.18 1.14 -2.44 2.2 l0 5.86 l-2.86 0 l0 -5.62 c0 -1.44 -0.9 -2.44 -2.14 -2.44 c-1.4 0 -2.22 1 -2.44 2.2 l0 5.86 l-2.86 0 l0 -10.4 l2.86 0 l0 2 c0.06 -0.54 1.08 -2.16 3.16 -2.16 c1.48 0 2.96 0.8 3.76 2.34 c0.28 -0.66 1.48 -2.34 3.84 -2.34 z M143.46000000000004 12.719999999999999 c-0.32 -0.74 -0.78 -1.02 -1.34 -1.02 c-0.52 0 -1 0.32 -1 0.78 c0 0.44 0.28 0.72 0.84 0.92 l1.26 0.46 c1.52 0.54 3 1.1 3 3.12 c0 2.08 -2.06 3.26 -4.16 3.26 c-1.9 0 -3.7 -1.12 -4.12 -2.94 l2.26 -0.7 c0.26 0.7 0.82 1.36 1.86 1.36 c0.74 0 1.3 -0.48 1.3 -1 c0 -0.34 -0.24 -0.64 -0.86 -0.88 l-1.2 -0.42 c-2.04 -0.74 -2.98 -1.8 -2.98 -3.22 c0 -1.88 1.74 -3.02 3.68 -3.02 c1.96 0 3.26 1.06 3.86 2.68 z"></path></g><g id="SvgjsG1443" featureKey="Li3fkV-0" transform="matrix(0.3445858683751702,0,0,0.3445858683751702,93.33150339563481,47.11166992766565)" fill="#fcfcfc"><path d="M6.38 18.8 q1.7 0 2.6 -0.73 t0.9 -1.99 q0 -1.36 -0.93 -2.14 t-2.43 -0.78 l-3.26 0 l0 5.64 l3.12 0 z M6.08 11.96 q1.44 0 2.31 -0.62 t0.87 -1.76 q0 -2.48 -3 -2.54 l-3 0 l0 4.92 l2.82 0 z M6.12 5.84 q2.22 0 3.33 0.9 t1.13 2.84 q0 1.12 -0.66 1.91 t-1.88 1.03 l0 0.04 q1.38 0.08 2.26 1.04 t0.9 2.44 q0 1.88 -1.25 2.91 t-3.45 1.05 l-4.56 0 l0 -14.16 l4.18 0 z M37.424 5.84 l0 1.2 l-7.34 0 l0 5.04 l6.88 0 l0 1.2 l-6.88 0 l0 5.52 l7.66 0 l0 1.2 l-8.98 0 l0 -14.16 l8.66 0 z M64.148 5.84 l0 1.2 l-4.84 0 l0 12.96 l-1.32 0 l0 -12.96 l-4.84 0 l0 -1.2 l11 0 z M89.85199999999999 5.84 l0 1.2 l-4.84 0 l0 12.96 l-1.32 0 l0 -12.96 l-4.84 0 l0 -1.2 l11 0 z M114.916 5.84 l0 1.2 l-7.34 0 l0 5.04 l6.88 0 l0 1.2 l-6.88 0 l0 5.52 l7.66 0 l0 1.2 l-8.98 0 l0 -14.16 l8.66 0 z M136.56 12.08 q1.54 0 2.38 -0.69 t0.84 -1.83 t-0.82 -1.82 t-2.44 -0.7 l-2.86 0 l0 5.04 l2.9 0 z M136.16 5.84 q4.9 0 4.94 3.72 q0 3.14 -3.62 3.64 l4.12 6.8 l-1.5 0 l-3.98 -6.72 l-2.46 0 l0 6.72 l-1.32 0 l0 -14.16 l3.82 0 z M179.508 15.04 l6.5 0 l-3.2 -7.76 z M183.548 5.84 l5.96 14.16 l-1.48 0 l-1.54 -3.76 l-7.5 0 l-1.6 3.76 l-1.38 0 l6.18 -14.16 l1.36 0 z M207.092 5.84 l0 14.16 l-1.32 0 l0 -14.16 l1.32 0 z M249.06000000000003 18.8 q1.7 0 2.6 -0.73 t0.9 -1.99 q0 -1.36 -0.93 -2.14 t-2.43 -0.78 l-3.26 0 l0 5.64 l3.12 0 z M248.76000000000005 11.96 q1.44 0 2.31 -0.62 t0.87 -1.76 q0 -2.48 -3 -2.54 l-3 0 l0 4.92 l2.82 0 z M248.80000000000004 5.84 q2.22 0 3.33 0.9 t1.13 2.84 q0 1.12 -0.66 1.91 t-1.88 1.03 l0 0.04 q1.38 0.08 2.26 1.04 t0.9 2.44 q0 1.88 -1.25 2.91 t-3.45 1.05 l-4.56 0 l0 -14.16 l4.18 0 z M280.10400000000004 5.84 l0 1.2 l-7.34 0 l0 5.04 l6.88 0 l0 1.2 l-6.88 0 l0 5.52 l7.66 0 l0 1.2 l-8.98 0 l0 -14.16 l8.66 0 z M306.82800000000003 5.84 l0 1.2 l-4.84 0 l0 12.96 l-1.32 0 l0 -12.96 l-4.84 0 l0 -1.2 l11 0 z M332.53200000000004 5.84 l0 1.2 l-4.84 0 l0 12.96 l-1.32 0 l0 -12.96 l-4.84 0 l0 -1.2 l11 0 z M357.59600000000006 5.84 l0 1.2 l-7.34 0 l0 5.04 l6.88 0 l0 1.2 l-6.88 0 l0 5.52 l7.66 0 l0 1.2 l-8.98 0 l0 -14.16 l8.66 0 z M379.24000000000007 12.08 q1.54 0 2.38 -0.69 t0.84 -1.83 t-0.82 -1.82 t-2.44 -0.7 l-2.86 0 l0 5.04 l2.9 0 z M378.84000000000003 5.84 q4.9 0 4.94 3.72 q0 3.14 -3.62 3.64 l4.12 6.8 l-1.5 0 l-3.98 -6.72 l-2.46 0 l0 6.72 l-1.32 0 l0 -14.16 l3.82 0 z M424.56800000000004 5.48 q2.46 0 3.86 1.78 l-1.14 0.82 q-1.04 -1.4 -2.76 -1.4 q-1.4 0 -2.27 0.72 t-0.91 1.96 q0 1.08 0.66 1.75 t2.3 1.13 q2.16 0.64 2.88 1.13 t1.09 1.21 t0.37 1.8 q0 1.72 -1.23 2.83 t-3.17 1.15 q-3.06 0 -4.6 -2.14 l1.26 -0.84 q1.06 1.76 3.24 1.78 q1.42 0 2.3 -0.79 t0.88 -1.99 q0 -0.7 -0.25 -1.15 t-0.76 -0.78 t-1.3 -0.6 t-1.85 -0.63 q-1.6 -0.52 -2.37 -1.46 t-0.77 -2.4 q0 -1.72 1.29 -2.8 t3.25 -1.08 z M446.272 12.92 q0 2.7 1.66 4.45 t4.34 1.79 q2.7 0 4.34 -1.77 t1.66 -4.47 q0 -2.74 -1.64 -4.47 t-4.38 -1.77 q-2.68 0 -4.32 1.76 t-1.66 4.48 z M452.272 5.48 q2.16 0 3.82 0.95 t2.57 2.66 t0.93 3.83 q0 3.26 -2.06 5.33 t-5.26 2.11 q-3.22 0 -5.24 -2.09 t-2.08 -5.35 q0.02 -3.26 2.04 -5.32 t5.28 -2.12 z M478.096 5.84 l0 12.96 l6.6 0 l0 1.2 l-7.92 0 l0 -14.16 l1.32 0 z M502.06 5.84 l0 8.5 q0 2.3 0.95 3.54 t2.89 1.28 q3.8 0 3.84 -5.02 l0 -8.3 l1.32 0 l0 8.64 q0 2.78 -1.3 4.32 t-3.86 1.56 q-2.52 0 -3.83 -1.53 t-1.33 -4.25 l0 -8.74 l1.32 0 z M538.2040000000001 5.84 l0 1.2 l-4.84 0 l0 12.96 l-1.32 0 l0 -12.96 l-4.84 0 l0 -1.2 l11 0 z M555.928 5.84 l0 14.16 l-1.32 0 l0 -14.16 l1.32 0 z M574.432 12.92 q0 2.7 1.66 4.45 t4.34 1.79 q2.7 0 4.34 -1.77 t1.66 -4.47 q0 -2.74 -1.64 -4.47 t-4.38 -1.77 q-2.68 0 -4.32 1.76 t-1.66 4.48 z M580.432 5.48 q2.16 0 3.82 0.95 t2.57 2.66 t0.93 3.83 q0 3.26 -2.06 5.33 t-5.26 2.11 q-3.22 0 -5.24 -2.09 t-2.08 -5.35 q0.02 -3.26 2.04 -5.32 t5.28 -2.12 z M606.636 5.84 l8.62 12.4 l0.04 0 l0 -12.4 l1.32 0 l0 14.16 l-1.7 0 l-8.62 -12.4 l-0.04 0 l0 12.4 l-1.32 0 l0 -14.16 l1.7 0 z M638.76 5.48 q2.46 0 3.86 1.78 l-1.14 0.82 q-1.04 -1.4 -2.76 -1.4 q-1.4 0 -2.27 0.72 t-0.91 1.96 q0 1.08 0.66 1.75 t2.3 1.13 q2.16 0.64 2.88 1.13 t1.09 1.21 t0.37 1.8 q0 1.72 -1.23 2.83 t-3.17 1.15 q-3.06 0 -4.6 -2.14 l1.26 -0.84 q1.06 1.76 3.24 1.78 q1.42 0 2.3 -0.79 t0.88 -1.99 q0 -0.7 -0.25 -1.15 t-0.76 -0.78 t-1.3 -0.6 t-1.85 -0.63 q-1.6 -0.52 -2.37 -1.46 t-0.77 -2.4 q0 -1.72 1.29 -2.8 t3.25 -1.08 z"></path></g>
			</g>
		</svg>
	